<?xml version="1.0" encoding="utf-8"?>
<!-- Generator: Adobe Illustrator 24.2.3, SVG Export Plug-In . SVG Version: 6.00 Build 0)  -->
<svg version="1.1" id="Layer_1" xmlns="http://www.w3.org/2000/svg" xmlns:xlink="http://www.w3.org/1999/xlink" x="0px" y="0px"
	 viewBox="0 0 200 174.97" style="enable-background:new 0 0 200 174.97;" xml:space="preserve">
<style type="text/css">
	.st0{fill:#683830;}
</style>
<path class="st0" d="M197.59,174.97c1.95,0,2.42-0.44,2.41-2.4c-0.07-29.48-0.07-58.96-0.01-88.45c0-1.78-0.45-2.2-2.21-2.19
	C132.44,81.97,67.1,81.96,1.76,81.97c-0.59,0-1.17,0.01-1.76,0.02c0,30.98,0,61.96,0,92.95
	C65.86,174.93,131.73,174.91,197.59,174.97z M64.65,128.47c-1.23,0.03-1.54-0.35-1.5-1.53c0.08-2.86,0.11-5.72-0.01-8.58
	c-0.06-1.44,0.45-1.67,1.76-1.67c11.77,0.05,23.54,0.03,35.3,0.03c11.57,0,23.15,0.03,34.72-0.04c1.54-0.01,1.98,0.39,1.9,1.92
	c-0.13,2.66-0.14,5.34,0,7.99c0.09,1.61-0.5,1.88-1.96,1.87c-20.16-0.05-40.31-0.03-60.47-0.03
	C71.15,128.44,67.9,128.38,64.65,128.47z M103.17,68.3c0.91-12.1,9.12-22.23,20.83-25.42c1.31-0.36,1.61-0.93,1.71-2.24
	c0.21-2.75-0.37-4.35-3.22-5.77c-7.71-3.84-11.29-12.78-9.05-21.01c2.31-8.44,9.99-14.12,18.72-13.85
	c8.53,0.27,15.77,6.43,17.61,15.01c1.76,8.22-2.51,16.82-10.36,20.48c-1.58,0.74-2.19,1.49-2.11,3.26c0.16,3.46,0.05,3.47,3.24,4.55
	c10.74,3.65,18.61,13.84,19.18,24.72c0.09,1.65-0.16,2.31-2.09,2.28c-8.72-0.12-17.44-0.05-26.16-0.05
	c-8.78,0-17.57-0.04-26.35,0.04C103.57,70.31,103.04,70.02,103.17,68.3z M8.17,42.8c-0.01-1.33,0.41-1.62,1.64-1.58
	c2.73,0.09,5.46-0.02,8.19,0.05c1.11,0.03,1.49-0.33,1.45-1.44c-0.08-1.88,0.04-3.77-0.04-5.66c-0.04-1.06,0.21-1.48,1.37-1.45
	c2.99,0.08,5.98,0.07,8.97,0c1.12-0.03,1.47,0.34,1.42,1.43c-0.08,1.75,0.07,3.52-0.05,5.26c-0.1,1.45,0.33,1.87,1.82,1.86
	c9.49-0.07,18.99-0.04,28.48-0.04c3.58,0,7.16,0.06,10.73-0.03c1.45-0.04,2.01,0.25,2,1.89c-0.09,8.45-0.08,16.91-0.01,25.36
	c0.01,1.49-0.41,1.82-1.85,1.81c-10.4-0.06-20.81-0.03-31.22-0.03c-10.41,0-20.81-0.03-31.22,0.03c-1.39,0.01-1.7-0.38-1.69-1.73
	C8.23,59.97,8.23,51.39,8.17,42.8z"/>
</svg>
