<svg width="56" height="40" viewBox="0 0 56 40" fill="none" xmlns="http://www.w3.org/2000/svg">
<g clip-path="url(#clip0)">
<path d="M55.9437 24.2393C55.8968 23.5901 55.953 22.9126 55.7936 22.2727C55.5123 21.153 55.3529 20.005 54.9778 18.9041C54.5934 17.7467 54.1901 16.5988 53.6181 15.5355C52.8867 14.1523 52.0428 12.8161 50.9738 11.6587C49.6516 10.2191 48.2263 8.92057 46.5384 7.91375C45.7414 7.43386 44.9068 7.02925 44.0816 6.61523C43.1439 6.14475 42.1687 5.80601 41.1747 5.49549C40.7153 5.35435 40.237 5.26025 39.7963 5.09088C39.1493 4.83682 38.4648 4.77096 37.799 4.62981C37.0019 4.46044 36.2049 4.28166 35.4078 4.09347C34.517 3.88646 33.6262 3.65122 32.7447 3.39716C31.6851 3.10547 30.6536 2.73849 29.6315 2.32447C28.6657 1.93868 27.8499 1.28001 27.0341 0.621344C26.5559 0.235553 25.9839 -0.0185052 25.3275 0.00972346C24.8211 0.0285426 24.3147 0.0379521 23.8084 0.00972346C23.2551 -0.0185052 22.805 0.235553 22.3549 0.480201C21.5297 0.92245 20.9577 1.65639 20.3107 2.29624C19.3074 3.28425 18.3321 4.30048 17.1225 5.05324C16.1567 5.65545 15.1064 6.05066 14.0843 6.52113C12.7809 7.13275 11.4962 7.7726 10.2491 8.51596C9.24574 9.10876 7.47347 10.172 5.58867 11.9787C4.66972 12.8632 3.47883 14.1523 2.32545 15.9119C1.72531 17.2574 1.12518 18.603 0.534421 19.9486C0.196845 21.2377 0.0655662 22.348 0.00930363 23.1666C-0.0282047 23.6936 0.0749433 24.3711 0.00930363 25.2838C-0.056336 26.0554 0.206223 26.7611 0.403142 27.4574C0.89075 29.217 1.7722 30.7695 2.99122 32.1433C4.2665 33.5736 5.74808 34.7404 7.40783 35.6531C9.09571 36.5846 10.8492 37.3562 12.7246 37.8832C13.803 38.1843 14.8907 38.476 15.9691 38.7771C17.3757 39.1629 18.8104 39.3699 20.2357 39.5957C21.3516 39.7745 22.4956 39.9439 23.6302 39.9439C25.1774 39.9439 26.7153 40.0568 28.2625 39.9721C30.0441 39.878 31.8164 40.0191 33.598 39.7839C35.2859 39.5675 36.9832 39.4357 38.6711 39.1629C40.0964 38.9276 40.8372 38.7865 41.2779 38.683C41.653 38.5983 42.7688 38.3442 44.2598 37.8643C45.8539 37.3562 47.2511 36.9046 48.939 36.0107C49.6891 35.6061 50.5425 35.1544 51.5552 34.3452C52.3991 33.6771 53.7494 32.5291 54.8278 30.5814C55.3154 29.7063 55.6623 28.7559 55.8405 27.7773C56.0468 26.6105 56.0281 25.4155 55.9437 24.2393ZM54.1995 26.6482C54.0307 27.5515 53.7119 28.4266 53.2618 29.2452C52.2678 31.0518 51.0113 32.1151 50.2236 32.7361C49.2859 33.4795 48.4983 33.9029 47.795 34.2699C46.229 35.0979 44.935 35.512 43.4534 35.9918C42.0656 36.4341 41.0435 36.6693 40.6871 36.754C40.2839 36.8481 39.59 36.9799 38.2772 37.1963C36.7112 37.4503 35.1359 37.5727 33.5699 37.7703C31.9196 37.9867 30.2692 37.8549 28.6188 37.9396C27.1841 38.0149 25.7588 37.9114 24.3241 37.9114C23.2739 37.9114 22.2049 37.7514 21.1734 37.5915C19.8512 37.3845 18.5197 37.1963 17.2256 36.8387C16.2223 36.5658 15.2189 36.293 14.2156 36.0107C12.4808 35.5214 10.8492 34.8062 9.29263 33.9406C7.75478 33.0937 6.38573 32.0116 5.20421 30.6849C4.06958 29.4146 3.25378 27.9749 2.80368 26.3471C2.62551 25.6978 2.38171 25.0485 2.43797 24.3334C2.50361 23.496 2.40984 22.8655 2.43797 22.3762C2.49423 21.6141 2.61614 20.5884 2.92558 19.3934C3.47883 18.1513 4.03208 16.8999 4.58533 15.6578C5.65431 14.03 6.76081 12.8349 7.61413 12.0163C9.36764 10.3414 11.0086 9.35341 11.937 8.80765C13.0903 8.13017 14.2812 7.52796 15.4909 6.96338C16.438 6.52113 17.4132 6.15416 18.304 5.599C19.4293 4.90269 20.3388 3.97114 21.2578 3.04901C21.8579 2.45621 22.3924 1.77872 23.152 1.3647C23.5739 1.13887 23.9865 0.903631 24.5023 0.931859C24.9711 0.960088 25.44 0.950679 25.9088 0.931859C26.5183 0.91304 27.0435 1.13887 27.4936 1.50584C28.2437 2.11746 29.0033 2.71967 29.8941 3.07724C30.8318 3.45362 31.7976 3.79236 32.7729 4.06524C33.5887 4.29107 34.4139 4.5169 35.239 4.70509C35.9705 4.87446 36.7112 5.04383 37.452 5.2038C38.0615 5.33553 38.6992 5.4014 39.2993 5.63664C39.7119 5.7966 40.1526 5.88128 40.584 6.01302C41.5029 6.2953 42.4125 6.61523 43.2752 7.04807C44.0441 7.43386 44.8131 7.81024 45.5538 8.25249C47.1198 9.18404 48.442 10.3885 49.661 11.7152C50.655 12.7879 51.4333 14.0205 52.1178 15.3097C52.6429 16.2977 53.018 17.3609 53.3743 18.4336C53.7213 19.4593 53.8713 20.5131 54.1339 21.5576C54.2839 22.1504 54.2277 22.7714 54.2745 23.3736C54.3777 24.4651 54.3964 25.5755 54.1995 26.6482Z" fill="#FFFCF9"/>
<path d="M17.5445 10.4258C17.5352 9.00495 18.1916 7.8758 19.0542 6.82193C19.8138 5.8998 20.7609 5.23172 21.7924 4.69537C22.1112 4.526 22.4581 4.27194 22.8801 4.33781C23.0114 4.35663 23.1895 4.28135 23.2458 4.46013C23.3021 4.63892 23.3021 4.8177 23.1333 4.97766C22.9176 5.17526 22.7207 5.40109 22.5144 5.61751C21.7361 6.43614 20.9297 7.24536 20.3108 8.19573C19.5981 9.28724 19.2512 10.5011 19.148 11.7902C19.1293 11.9878 19.0824 12.1854 19.0636 12.3924C19.0449 12.5712 19.1105 12.797 18.8573 12.8535C18.651 12.9005 18.4541 12.8252 18.3135 12.6747C18.004 12.3548 17.7977 11.9595 17.6758 11.5455C17.5727 11.188 17.582 10.8022 17.5445 10.4258Z" fill="#FFFCF9"/>
<path d="M23.4614 6.52092C23.4333 5.10008 23.7146 3.7451 24.4085 2.49363C24.5867 2.1643 24.8117 1.71264 25.2524 1.82556C25.6275 1.92906 25.4494 2.39013 25.4025 2.6536C25.168 4.00857 25.2337 5.36355 25.2431 6.71852C25.2524 7.55597 25.59 8.30873 25.937 9.04268C26.1902 9.57902 26.5746 10.0307 26.8559 10.5482C26.9403 10.7082 27.1185 10.9246 26.9403 11.1034C26.7715 11.2727 26.5465 11.301 26.2933 11.2351C25.0461 10.9058 24.3335 10.0119 23.8365 8.89213C23.5083 8.13936 23.4427 7.33014 23.4614 6.52092Z" fill="#FFFCF9"/>
<path d="M26.1902 3.34973C26.134 2.97335 26.2277 2.63461 26.4903 2.37114C26.6497 2.20177 26.7997 2.09826 26.9591 2.45583C27.1373 2.85103 27.2217 3.27446 27.3811 3.66966C27.85 4.84585 28.7502 5.60803 29.7254 6.31374C30.213 6.6619 30.71 7.01005 31.1976 7.3582C31.432 7.52757 31.5727 7.73458 31.4789 8.02628C31.3758 8.34621 31.1413 8.52499 30.8038 8.58144C30.0067 8.70377 29.4066 8.31798 28.8439 7.83809C27.8031 6.94418 27.0342 5.84326 26.4715 4.61061C26.3027 4.21541 26.1152 3.80139 26.1902 3.34973Z" fill="#FFFCF9"/>
<path d="M18.9388 23.684C19.8968 23.67 20.6622 22.8794 20.6483 21.9181C20.6344 20.9568 19.8465 20.1888 18.8885 20.2028C17.9305 20.2167 17.1652 21.0073 17.1791 21.9686C17.193 22.9299 17.9809 23.6979 18.9388 23.684Z" fill="#FFFCF9"/>
<path d="M39.1935 23.3827C40.1515 23.3687 40.9168 22.5782 40.9029 21.6168C40.889 20.6555 40.1011 19.8876 39.1432 19.9015C38.1852 19.9155 37.4198 20.706 37.4337 21.6673C37.4476 22.6286 38.2355 23.3966 39.1935 23.3827Z" fill="#FFFCF9"/>
<path d="M26.8935 26.6476C26.8747 26.6476 26.856 26.6476 26.8278 26.6476C25.8808 26.61 25.0274 25.829 24.7368 24.7469C24.6899 24.5681 24.793 24.3893 24.9712 24.3423C25.1493 24.2952 25.3275 24.3988 25.3744 24.5775C25.6088 25.4714 26.2934 25.9607 26.856 25.989C27.3999 26.0078 27.8781 25.5091 28.3376 25.0198C28.4032 24.9445 28.4782 24.8786 28.5439 24.8034L28.647 24.6999H28.797C28.9564 24.7093 29.0315 24.794 29.1721 24.9633C29.4065 25.2362 30.0161 25.9701 30.6162 25.9701C30.6256 25.9701 30.6256 25.9701 30.6349 25.9701C31.4695 25.9513 32.2009 25.4056 32.5385 24.5399C32.6041 24.3705 32.7917 24.2858 32.9605 24.3517C33.1293 24.4176 33.2136 24.6058 33.148 24.7751C32.7073 25.8855 31.7508 26.5912 30.6537 26.6194C29.8285 26.6382 29.1346 25.9231 28.7783 25.4997C28.2625 26.0548 27.6812 26.6476 26.8935 26.6476Z" fill="#FFFCF9"/>
</g>
<defs>
<clipPath id="clip0">
<rect width="56" height="40" fill="white"/>
</clipPath>
</defs>
</svg>
