<svg width="56" height="40" viewBox="0 0 56 40" fill="none" xmlns="http://www.w3.org/2000/svg">
<g clip-path="url(#clip0)">
<path d="M55.9437 24.2394C55.8968 23.5902 55.953 22.9127 55.7936 22.2728C55.5123 21.1531 55.3529 20.0051 54.9778 18.9042C54.5934 17.7468 54.1901 16.5989 53.6181 15.5356C52.8867 14.1524 52.0428 12.8162 50.9738 11.6589C49.6516 10.2192 48.2263 8.92069 46.5384 7.91387C45.7414 7.43398 44.9068 7.02937 44.0816 6.61535C43.1439 6.14487 42.1687 5.80613 41.1747 5.49561C40.7153 5.35447 40.237 5.26038 39.7963 5.091C39.1493 4.83695 38.4648 4.77108 37.799 4.62994C37.0019 4.46056 36.2049 4.28178 35.4078 4.09359C34.517 3.88658 33.6262 3.65134 32.7447 3.39728C31.6851 3.10559 30.6536 2.73862 29.6315 2.3246C28.6657 1.9388 27.8499 1.28013 27.0341 0.621466C26.5559 0.235675 25.9839 -0.0183831 25.3275 0.00984553C24.8211 0.0286646 24.3147 0.0380742 23.8084 0.00984553C23.2551 -0.0183831 22.805 0.235675 22.3549 0.480323C21.5297 0.922572 20.9577 1.65652 20.3107 2.29637C19.3074 3.28437 18.3321 4.3006 17.1225 5.05337C16.1567 5.65558 15.1064 6.05078 14.0843 6.52126C12.7809 7.13288 11.4962 7.77273 10.2491 8.51608C9.24574 9.10888 7.47347 10.1722 5.58867 11.9788C4.66972 12.8633 3.47883 14.1524 2.32545 15.912C1.72531 17.2576 1.12518 18.6031 0.534421 19.9487C0.196845 21.2378 0.0655662 22.3481 0.00930363 23.1667C-0.0282047 23.6937 0.0749433 24.3712 0.00930363 25.2839C-0.056336 26.0555 0.206223 26.7612 0.403142 27.4575C0.89075 29.2171 1.7722 30.7697 2.99122 32.1435C4.2665 33.5737 5.74808 34.7405 7.40783 35.6532C9.09571 36.5848 10.8492 37.3564 12.7246 37.8833C13.803 38.1844 14.8907 38.4761 15.9691 38.7772C17.3757 39.163 18.8104 39.37 20.2357 39.5958C21.3516 39.7746 22.4956 39.944 23.6302 39.944C25.1774 39.944 26.7153 40.0569 28.2625 39.9722C30.0441 39.8781 31.8164 40.0193 33.598 39.784C35.2859 39.5676 36.9832 39.4359 38.6711 39.163C40.0964 38.9278 40.8372 38.7866 41.2779 38.6831C41.653 38.5984 42.7688 38.3444 44.2598 37.8645C45.8539 37.3564 47.2511 36.9047 48.939 36.0108C49.6891 35.6062 50.5425 35.1545 51.5552 34.3453C52.3991 33.6772 53.7494 32.5293 54.8278 30.5815C55.3154 29.7064 55.6623 28.756 55.8405 27.7774C56.0468 26.6106 56.0281 25.4156 55.9437 24.2394ZM54.1995 26.6483C54.0307 27.5516 53.7119 28.4267 53.2618 29.2453C52.2678 31.052 51.0113 32.1152 50.2236 32.7363C49.2859 33.4796 48.4983 33.9031 47.795 34.27C46.229 35.0981 44.935 35.5121 43.4534 35.992C42.0656 36.4342 41.0435 36.6695 40.6871 36.7541C40.2839 36.8482 39.59 36.98 38.2772 37.1964C36.7112 37.4505 35.1359 37.5728 33.5699 37.7704C31.9196 37.9868 30.2692 37.8551 28.6188 37.9398C27.1841 38.015 25.7588 37.9115 24.3241 37.9115C23.2739 37.9115 22.2049 37.7516 21.1734 37.5916C19.8512 37.3846 18.5197 37.1964 17.2256 36.8388C16.2223 36.566 15.2189 36.2931 14.2156 36.0108C12.4808 35.5215 10.8492 34.8064 9.29263 33.9407C7.75478 33.0938 6.38573 32.0117 5.20421 30.685C4.06958 29.4147 3.25378 27.975 2.80368 26.3472C2.62551 25.6979 2.38171 25.0487 2.43797 24.3335C2.50361 23.4961 2.40984 22.8656 2.43797 22.3763C2.49423 21.6142 2.61614 20.5885 2.92558 19.3935C3.47883 18.1515 4.03208 16.9 4.58533 15.6579C5.65431 14.0301 6.76081 12.8351 7.61413 12.0164C9.36764 10.3415 11.0086 9.35353 11.937 8.80778C13.0903 8.13029 14.2812 7.52808 15.4909 6.9635C16.438 6.52126 17.4132 6.15428 18.304 5.59912C19.4293 4.90281 20.3388 3.97127 21.2578 3.04913C21.8579 2.45633 22.3924 1.77884 23.152 1.36482C23.5739 1.13899 23.9865 0.903753 24.5023 0.931982C24.9711 0.96021 25.44 0.950801 25.9088 0.931982C26.5183 0.913162 27.0435 1.13899 27.4936 1.50596C28.2437 2.11758 29.0033 2.7198 29.8941 3.07736C30.8318 3.45374 31.7976 3.79249 32.7729 4.06536C33.5887 4.29119 34.4139 4.51702 35.239 4.70521C35.9705 4.87458 36.7112 5.04396 37.452 5.20392C38.0615 5.33565 38.6992 5.40152 39.2993 5.63676C39.7119 5.79672 40.1526 5.88141 40.584 6.01314C41.5029 6.29543 42.4125 6.61535 43.2752 7.04819C44.0441 7.43398 44.8131 7.81036 45.5538 8.25261C47.1198 9.18416 48.442 10.3886 49.661 11.7153C50.655 12.788 51.4333 14.0207 52.1178 15.3098C52.6429 16.2978 53.018 17.3611 53.3743 18.4337C53.7213 19.4594 53.8713 20.5133 54.1339 21.5577C54.2839 22.1505 54.2277 22.7715 54.2745 23.3738C54.3777 24.4653 54.3964 25.5756 54.1995 26.6483Z" fill="#683830"/>
<path d="M17.5445 10.4259C17.5352 9.00507 18.1916 7.87593 19.0542 6.82206C19.8138 5.89992 20.7609 5.23184 21.7924 4.6955C22.1112 4.52612 22.4581 4.27207 22.8801 4.33793C23.0114 4.35675 23.1895 4.28148 23.2458 4.46026C23.3021 4.63904 23.3021 4.81782 23.1333 4.97778C22.9176 5.17538 22.7207 5.40121 22.5144 5.61763C21.7361 6.43626 20.9297 7.24549 20.3108 8.19585C19.5981 9.28736 19.2512 10.5012 19.148 11.7903C19.1293 11.9879 19.0824 12.1855 19.0636 12.3925C19.0449 12.5713 19.1105 12.7971 18.8573 12.8536C18.651 12.9006 18.4541 12.8254 18.3135 12.6748C18.004 12.3549 17.7977 11.9597 17.6758 11.5457C17.5727 11.1881 17.582 10.8023 17.5445 10.4259Z" fill="#683830"/>
<path d="M23.4614 6.5208C23.4333 5.09996 23.7146 3.74498 24.4085 2.49351C24.5867 2.16418 24.8117 1.71252 25.2524 1.82543C25.6275 1.92894 25.4494 2.39001 25.4025 2.65348C25.168 4.00845 25.2337 5.36342 25.2431 6.7184C25.2524 7.55585 25.59 8.30861 25.937 9.04256C26.1902 9.5789 26.5746 10.0306 26.8559 10.5481C26.9403 10.708 27.1185 10.9245 26.9403 11.1032C26.7715 11.2726 26.5465 11.3008 26.2933 11.235C25.0461 10.9056 24.3335 10.0117 23.8365 8.892C23.5083 8.13924 23.4427 7.33002 23.4614 6.5208Z" fill="#683830"/>
<path d="M26.1902 3.34986C26.134 2.97347 26.2277 2.63473 26.4903 2.37126C26.6497 2.20189 26.7997 2.09839 26.9591 2.45595C27.1373 2.85115 27.2217 3.27458 27.3811 3.66978C27.85 4.84597 28.7502 5.60815 29.7254 6.31386C30.213 6.66202 30.71 7.01017 31.1976 7.35832C31.432 7.5277 31.5727 7.73471 31.4789 8.0264C31.3758 8.34633 31.1413 8.52511 30.8038 8.58157C30.0067 8.70389 29.4066 8.3181 28.8439 7.83821C27.8031 6.9443 27.0342 5.84339 26.4715 4.61074C26.3027 4.21553 26.1152 3.80151 26.1902 3.34986Z" fill="#683830"/>
<path d="M18.9388 23.684C19.8968 23.67 20.6622 22.8794 20.6483 21.9181C20.6344 20.9568 19.8465 20.1888 18.8885 20.2028C17.9305 20.2167 17.1652 21.0073 17.1791 21.9686C17.193 22.9299 17.9809 23.6979 18.9388 23.684Z" fill="#683830"/>
<path d="M39.1935 23.3827C40.1515 23.3687 40.9168 22.5782 40.9029 21.6168C40.889 20.6555 40.1011 19.8876 39.1432 19.9015C38.1852 19.9155 37.4198 20.706 37.4337 21.6673C37.4476 22.6286 38.2355 23.3966 39.1935 23.3827Z" fill="#683830"/>
<path d="M26.8935 26.6476C26.8747 26.6476 26.856 26.6476 26.8278 26.6476C25.8808 26.61 25.0274 25.829 24.7368 24.7469C24.6899 24.5681 24.793 24.3893 24.9712 24.3423C25.1493 24.2952 25.3275 24.3988 25.3744 24.5775C25.6088 25.4714 26.2934 25.9607 26.856 25.989C27.3999 26.0078 27.8781 25.5091 28.3376 25.0198C28.4032 24.9445 28.4782 24.8786 28.5439 24.8034L28.647 24.6999H28.797C28.9564 24.7093 29.0315 24.794 29.1721 24.9633C29.4065 25.2362 30.0161 25.9701 30.6162 25.9701C30.6256 25.9701 30.6256 25.9701 30.6349 25.9701C31.4695 25.9513 32.2009 25.4056 32.5385 24.5399C32.6041 24.3705 32.7917 24.2858 32.9605 24.3517C33.1293 24.4176 33.2136 24.6058 33.148 24.7751C32.7073 25.8855 31.7508 26.5912 30.6537 26.6194C29.8285 26.6382 29.1346 25.9231 28.7783 25.4997C28.2625 26.0548 27.6812 26.6476 26.8935 26.6476Z" fill="#683830"/>
</g>
<defs>
<clipPath id="clip0">
<rect width="56" height="40" fill="white"/>
</clipPath>
</defs>
</svg>
