<?xml version="1.0"?>
<svg xmlns="http://www.w3.org/2000/svg" id="Line_stroke_cutting_Ex" data-name="Line stroke cutting Ex" width="512" height="512" viewBox="0 0 512 512"><g>
<path fill="#683830" d="M303.7988,116.4854l-6.646-6.646,6.4366-19.31A8.0008,8.0008,0,0,0,304,88V45a29.0328,29.0328,0,0,0-29-29H232a8,8,0,0,0-8,8V92a27.8969,27.8969,0,0,0,7.519,19.0737l-9.9765,19.9532a48.0956,48.0956,0,0,0-5.0083,23.8632l5.5016,110.0332-20.3507,26.1651a8,8,0,0,0,.6582,10.5683l2.7866,2.7867A37.8818,37.8818,0,0,0,232,315.5557a38.2729,38.2729,0,0,0,8-.8454V384h16V307.0376a38.297,38.297,0,0,0,2.87-2.5942l37.13-37.13V284a12.0137,12.0137,0,0,1-12,12h-4V478a2.002,2.002,0,0,1-2,2H224v-1.585a11.9849,11.9849,0,0,1,8.2051-11.3842L241.2983,464H256V400H240v48a8.0008,8.0008,0,0,0-2.53.4106l-10.3247,3.4415A27.9636,27.9636,0,0,0,208,478.415V488a8,8,0,0,0,8,8h62a18.02,18.02,0,0,0,18-18V309.2958A28.0357,28.0357,0,0,0,312,284V168H296v71.7158a11.9217,11.9217,0,0,1-3.5146,8.4854L247.5566,293.13a22.033,22.033,0,0,1-28.7719,2.0347l51.53-66.253A8,8,0,0,0,272,224V152H256v69.2554L237.0886,245.57l-4.574-91.4786a32.0592,32.0592,0,0,1,3.3384-15.9087L244.9443,120h39.7422l7.7989,7.7988A11.9217,11.9217,0,0,1,296,136.2842V152h16V136.2842A27.8162,27.8162,0,0,0,303.7988,116.4854ZM275,32a13.0144,13.0144,0,0,1,13,13V72h-4a4.0045,4.0045,0,0,1-4-4,20.023,20.023,0,0,0-20-20H240V32Zm-23,72a12.0137,12.0137,0,0,1-12-12V64h20a4.0045,4.0045,0,0,1,4,4,20.023,20.023,0,0,0,20,20h3.5672l-5.3333,16Z"/>
<path fill="#683830" d="M487.7988,116.4854l-6.646-6.646,6.4366-19.31A8.0008,8.0008,0,0,0,488,88V45a29.0328,29.0328,0,0,0-29-29H440V32h19a13.0144,13.0144,0,0,1,13,13V72h-4a4.0045,4.0045,0,0,1-4-4,20.023,20.023,0,0,0-20-20H408V44a12.0137,12.0137,0,0,1,12-12h4V16h-4a28.0314,28.0314,0,0,0-28,28V56a8,8,0,0,0,8,8h8V92a27.8969,27.8969,0,0,0,7.519,19.0737l-9.9765,19.9532a48.0956,48.0956,0,0,0-5.0083,23.8632l5.5016,110.0331-20.3507,26.1652a8,8,0,0,0,.6582,10.5683l2.7866,2.7867A37.8818,37.8818,0,0,0,416,315.5557a38.2729,38.2729,0,0,0,8-.8454V448a8.0008,8.0008,0,0,0-2.53.4106l-10.3247,3.4415A27.9636,27.9636,0,0,0,392,478.415V488a8,8,0,0,0,8,8h62a18.02,18.02,0,0,0,18-18V352H464V478a2.002,2.002,0,0,1-2,2H408v-1.585a11.9849,11.9849,0,0,1,8.2051-11.3842L425.2983,464H440V307.0376a38.297,38.297,0,0,0,2.87-2.5942l37.13-37.13V284a12.0137,12.0137,0,0,1-12,12h-4v40h16V309.2958A28.0357,28.0357,0,0,0,496,284V136.2842A27.8162,27.8162,0,0,0,487.7988,116.4854ZM448,68a20.023,20.023,0,0,0,20,20h3.5672l-5.3333,16H436a12.0137,12.0137,0,0,1-12-12V64h20A4.0045,4.0045,0,0,1,448,68Zm32,171.7158a11.9217,11.9217,0,0,1-3.5146,8.4854L431.5566,293.13a22.033,22.033,0,0,1-28.7719,2.0347l51.53-66.253A8,8,0,0,0,456,224V152H440v69.2549L421.0885,245.57l-4.5739-91.4783a32.0592,32.0592,0,0,1,3.3384-15.9087L428.9443,120h39.7422l7.7989,7.7988A11.9217,11.9217,0,0,1,480,136.2842Z"/>
<path fill="#683830" d="M119.7988,116.4854l-6.646-6.646,6.4366-19.31A8.0008,8.0008,0,0,0,120,88V45A29.0328,29.0328,0,0,0,91,16H44A28.0314,28.0314,0,0,0,16,44V56a8,8,0,0,0,8,8H40V92a27.8969,27.8969,0,0,0,7.519,19.0737l-9.9765,19.9532A48.0956,48.0956,0,0,0,32.5342,154.89L33.61,176.3994l15.98-.7988-1.0757-21.5093a32.0592,32.0592,0,0,1,3.3384-15.9087L60.9443,120h39.7422l7.7989,7.7988A11.9217,11.9217,0,0,1,112,136.2842V239.7158a11.9217,11.9217,0,0,1-3.5146,8.4854L63.5566,293.13a22.033,22.033,0,0,1-28.7719,2.0347l51.53-66.253A8,8,0,0,0,88,224V152H72v69.2549L53.0886,245.57,50.39,191.6006l-15.98.7988,3.6261,72.5238L17.6851,291.0884a8,8,0,0,0,.6582,10.5683l2.7866,2.7867A37.8818,37.8818,0,0,0,48,315.5557a38.2729,38.2729,0,0,0,8-.8454V448a8.0008,8.0008,0,0,0-2.53.4106l-10.3247,3.4415A27.9636,27.9636,0,0,0,24,478.415V488a8,8,0,0,0,8,8H94a18.02,18.02,0,0,0,18-18V352H96V478a2.002,2.002,0,0,1-2,2H40v-1.585a11.9849,11.9849,0,0,1,8.2051-11.3842L57.2983,464H72V307.0376a38.297,38.297,0,0,0,2.87-2.5942l37.13-37.13V284a12.0137,12.0137,0,0,1-12,12H96v40h16V309.2958A28.0357,28.0357,0,0,0,128,284V136.2842A27.8162,27.8162,0,0,0,119.7988,116.4854ZM32,48V44A12.0137,12.0137,0,0,1,44,32H91a13.0144,13.0144,0,0,1,13,13V72h-4a4.0045,4.0045,0,0,1-4-4A20.023,20.023,0,0,0,76,48Zm36,56A12.0137,12.0137,0,0,1,56,92V64H76a4.0045,4.0045,0,0,1,4,4,20.023,20.023,0,0,0,20,20h3.5672l-5.3333,16Z"/></g>
</svg>