<?xml version="1.0" encoding="utf-8"?>
<!-- Generator: Adobe Illustrator 24.2.3, SVG Export Plug-In . SVG Version: 6.00 Build 0)  -->
<svg version="1.1" id="Layer_1" xmlns="http://www.w3.org/2000/svg" xmlns:xlink="http://www.w3.org/1999/xlink" x="0px" y="0px"
	 viewBox="0 0 200 189.12" style="enable-background:new 0 0 200 189.12;" xml:space="preserve">
<style type="text/css">
	.st0{fill:#683830;}
</style>
<path class="st0" d="M10.56,148.46c1.82,0.01,3.65,0.09,5.47-0.03c1.24-0.08,1.83,0.38,2.33,1.48c2.64,5.77,6.49,10.63,11.37,14.67
	c0.29,0.24,0.91,0.34,0.67,1.02c-0.65,0-1.3-0.01-1.95,0c-5.33,0.07-8.93,3.62-9,8.93c-0.03,2.08-0.06,4.17,0.02,6.25
	c0.16,4.27,3.43,8.01,7.7,8.18c6.11,0.25,12.24,0.12,18.35,0.07c1.64-0.01,2.84-1.39,2.86-2.9c0.01-1.53-1.18-2.78-2.82-2.93
	c-0.52-0.05-1.04-0.02-1.56-0.02c-5.08,0-10.16,0.01-15.23-0.01c-2.43-0.01-3.39-1.01-3.42-3.45c-0.02-1.69-0.03-3.39,0-5.08
	c0.04-2.09,1.04-3.14,3.11-3.14c20.25-0.02,40.49-0.02,60.74,0c2.16,0,3.18,1.05,3.25,3.26c0.04,1.43,0.01,2.86,0.01,4.3
	c-0.01,3.3-0.85,4.12-4.19,4.12c-9.7,0-19.4-0.01-29.1,0.01c-1.95,0-3.24,1.2-3.27,2.88c-0.03,1.67,1.27,2.98,3.17,2.98
	c10.35,0.02,20.7,0.07,31.05-0.03c3.9-0.04,7.13-3.02,7.98-6.84c0.3-1.36,0.32-2.72,0.23-4.08c-0.08-1.29,0.22-1.8,1.67-1.79
	c21.81,0.05,43.62,0.04,65.42,0.02c1.05,0,1.57,0.16,1.79,1.4c0.75,4.28,3.95,7.32,8.27,7.92c2.97,0.41,5.97,0.34,8.95-0.05
	c6.54-0.86,11.94-6.04,12.83-12.59c0.71-5.17,0.62-10.42,0.12-15.59c-0.63-6.56-4.43-10.97-10.71-13.02
	c-1.27-0.41-1.52-0.95-1.52-2.16c0.05-10.22,0.03-20.44,0.03-30.66c0-2.6,0.05-5.21-0.02-7.81c-0.03-1.08,0.24-1.6,1.39-1.42
	c0.32,0.05,0.65,0.01,0.98,0.01c7.67-0.02,12.45-4.77,12.45-12.38c0.01-7.94,0.01-15.88,0-23.83c-0.01-7.58-4.63-12.32-12.2-12.44
	c-3.64-0.06-7.29-0.05-10.94,0c-7.67,0.1-12.32,4.84-12.33,12.54c-0.01,7.68-0.01,15.36,0,23.04c0,8.49,4.51,13.08,12.97,13.02
	c1.64-0.01,1.85,0.56,1.84,1.97c-0.05,11.91-0.03,23.83-0.03,35.74c0,3.69,0,3.65-3.78,3.79c-0.92,0.03-1.22-0.18-1.41-1.07
	c-0.7-3.24-1.56-6.44-2.26-9.68c-2.12-9.83-7.96-16.42-17.29-20.01c-5.52-2.12-11.29-2.99-17.16-3.27c-2.49-0.12-4.7-0.83-6.55-2.6
	c-1.17-1.12-1.51-1.8,0.05-3.11c8.96-7.49,13.91-16.86,13.64-28.87c-0.26-11.65-0.04-23.3-0.08-34.96c0-1.14,0.32-1.87,1.2-2.63
	c4.41-3.84,6.58-8.6,4.99-14.44c-1.73-6.34-6.26-9.99-12.38-11.83c-4.01-1.2-8.14-0.73-12.22-0.76c-1.15-0.01-1.83-0.22-2.41-1.35
	c-1.9-3.66-4.9-6.17-8.72-7.7C105.56-2.2,94.35,1.03,88.27,9.3c-0.69,0.94-1.36,1.35-2.53,1.3c-2.4-0.09-4.82-0.1-7.22,0.01
	c-5.12,0.25-9.64,2-13.31,5.68c-6.31,6.34-6.06,15.26,0.66,21.16c1.05,0.92,1.37,1.81,1.37,3.15c-0.05,12.69-0.01,25.39-0.04,38.08
	c-0.01,5,1.25,9.64,3.72,13.96c2.61,4.58,6.1,8.42,10.2,11.69c0.93,0.74,1.03,1.22,0.23,2.14c-1.93,2.21-4.34,3.2-7.22,3.3
	c-4.5,0.17-8.95,0.76-13.28,1.99c-8.49,2.4-15.45,6.8-19.15,15.21c-0.53,1.2-1.13,1.58-2.43,1.57c-9.7-0.06-19.4-0.05-29.1-0.03
	c-4.5,0.01-7.97,2.46-9.61,6.64c-0.16,0.4-0.03,0.95-0.56,1.17c0,1.43,0,2.86,0,4.3c0.13,0.2,0.31,0.39,0.39,0.62
	C2.13,146.07,5.47,148.44,10.56,148.46z M9.95,134.42c1.43-0.07,3.09-0.46,4.23,0.12c1.33,0.68,0.12,2.5,0.52,3.8
	c0.4,1.29,0.5,2.67,0.77,4.24c-1.93,0-3.75,0.06-5.56-0.02c-2.28-0.1-3.97-1.83-4.01-3.99C5.85,136.35,7.59,134.53,9.95,134.42z
	 M76.52,115.84c1.27,0.87,0.27,3.74,0.4,5.73c0.01,0.19,0,0.39,0,0.58c0,1.75-0.03,3.5,0.01,5.25c0.02,0.83-0.22,1.16-1.09,1.13
	c-1.81-0.05-3.63-0.05-5.45,0c-0.88,0.03-1.1-0.34-1.09-1.14c0.03-3.37,0.03-6.75,0-10.12c-0.01-0.89,0.23-1.27,1.18-1.3
	C72.55,115.91,75.17,114.92,76.52,115.84z M63.4,127.51c0.01,0.74-0.21,1.03-0.99,1.03c-4.87-0.03-9.74-0.01-14.96-0.01
	c3.6-6.55,9.17-9.59,15.94-11.3C63.39,120.75,63.37,124.13,63.4,127.51z M57.89,134.4c11.51,0,23.02,0,34.54,0
	c2.4,0,2.73,0.23,2.52,2.69c-0.44,5.02-2.41,9.53-5.02,13.77c-3.84,6.25-9.09,10.96-15.71,14.15c-0.84,0.41-1.67,0.6-2.61,0.6
	c-9.11-0.02-18.21-0.02-27.32,0c-0.86,0-1.66-0.09-2.45-0.46C30.51,159.9,23.65,151.05,20.77,139c-0.09-0.38-0.1-0.77-0.14-1.16
	c-0.32-3.2-0.11-3.43,3.11-3.43C35.12,134.4,46.5,134.4,57.89,134.4z M73.08,62.01c-0.02-0.81,0.12-1.32,1.09-1.47
	c1.97-0.31,3.93-0.75,6.14-1.19c-0.51,4.14-2.67,6.78-5.92,8.69c-1.01,0.59-1.35,0.42-1.31-0.77
	C73.14,65.52,73.12,63.76,73.08,62.01z M74.43,74.48c3.51-1.39,6.54-3.43,8.8-6.53c1.77-2.43,2.76-5.16,3-8.12
	c0.09-1.19,0.52-1.52,1.62-1.61c3.63-0.3,7.24-0.78,10.89-0.85c1.35-0.02,2.6-0.3,3.33-1.62c1.15-2.09-0.36-4.35-2.93-4.3
	c-4.43,0.09-8.83,0.49-13.21,1.12c-4.24,0.61-8.46,1.34-12.83,2.03c0-5.41-0.07-10.81,0.04-16.2c0.04-2.04-0.63-3.36-2.3-4.56
	c-5.65-4.03-5.68-10.2-0.18-14.48c2.56-1.99,5.52-2.85,8.72-2.9c2.86-0.04,5.73-0.1,8.59,0.02c2.01,0.08,3.22-0.7,4.23-2.42
	c3.83-6.55,12.02-9.67,19.25-7.48c3.78,1.15,6.52,3.45,7.81,7.25c0.63,1.86,1.79,2.63,3.77,2.65c4.22,0.04,8.47-0.46,12.66,0.32
	c4.14,0.77,7.34,2.95,8.98,6.97c1.45,3.56,0.25,7.25-3.47,9.82c-2.04,1.4-2.68,3.01-2.62,5.38c0.14,5.2,0.04,10.4,0.04,15.73
	c-5.5-1.07-10.87-2.03-16.3-2.54c-2.78-0.26-5.57-0.5-8.36-0.64c-1.97-0.1-3.28,1.02-3.39,2.69c-0.11,1.72,1.18,3,3.22,3.18
	c3.3,0.28,6.61,0.56,9.91,0.85c0.84,0.07,1.59,0.05,1.69,1.33c0.56,7.27,4.74,11.88,11.2,14.61c1.53,0.64,2.12,1.3,2.09,3.05
	c-0.13,8.41-3.75,15.16-9.73,20.76c-6.22,5.82-13.49,9.64-22.04,10.77c-4.05,0.53-7.72-0.75-11.3-2.34
	c-6.88-3.06-12.76-7.45-17.41-13.44c-3.89-5.01-5.48-10.66-5.13-16.96C73.12,74.98,73.68,74.78,74.43,74.48z M138.52,68.68
	c-3.72-1.71-6.14-4.18-7.08-8.02c-0.29-1.19,0-1.28,1.1-1.09C139.05,60.71,139.05,60.69,138.52,68.68z M134.88,128.65
	c-0.07-1.23-0.01-2.47-0.01-3.71c0-2.67,0.05-5.34-0.02-8c-0.03-1.16,0.35-1.42,1.46-1.34c2,0.15,4.51-0.37,5.83,0.79
	c1.2,1.05,0.32,3.57,0.35,5.44c0.06,3.71-0.03,7.42,0.04,11.13c0.03,1.24-0.27,1.8-1.6,1.67c-1.93-0.18-4.43,0.79-5.66-0.36
	C134.03,133.1,134.98,130.58,134.88,128.65z M168.85,146.05c0.22,0.9,0.18,1.55-0.35,2.34c-1.17,1.72-1.51,3.7-1.5,5.76
	c0.02,4.81-0.07,9.63,0.04,14.44c0.04,1.61-0.51,2.01-1.99,1.89c-1.49-0.12-3.02-0.19-4.48,0.02c-1.83,0.26-2.13-0.7-2.37-2.14
	c-1.42-8.52-2.88-17.04-4.36-25.55c-0.54-3.06-1.84-5.69-4.71-7.25c-0.53-0.29-0.74-0.63-0.74-1.22c0.01-5.65,0.01-11.29,0.01-17.07
	c8.93,2.3,15.29,7.08,17.52,16.27C166.92,137.7,167.82,141.89,168.85,146.05z M144.32,140.55c2.37,0,3.22,0.68,3.66,3.09
	c0.83,4.6,1.6,9.21,2.39,13.82c0.65,3.78,1.28,7.55,1.97,11.32c0.21,1.14,0.17,1.71-1.32,1.71c-17.43-0.05-34.86-0.04-52.3-0.03
	c-0.73,0-1.32-0.04-1.8-0.79c-1.88-2.95-4.67-4.18-8.12-4.06c-1.23,0.04-2.47,0.01-4.25,0.01c3.79-3.11,6.82-6.28,9.3-9.95
	c1.28-1.88,2.47-3.82,3.36-5.91c0.41-0.98,0.93-1.37,2.02-1.31c2.01,0.1,4.03,0.04,6.05,0.03c4.54-0.03,8.04-2.36,9.58-6.6
	c0.43-1.19,1.06-1.34,2.13-1.34C126.11,140.56,135.21,140.54,144.32,140.55z M82.81,119.94c15.56,7.87,30.78,7.88,46.16-0.26
	c0,4.62-0.01,9.27,0.01,13.92c0,0.76-0.28,1.02-1.03,1.02c-4.1-0.02-8.19-0.03-12.29,0.01c-0.82,0.01-1.1-0.47-1.44-1.05
	c-2.09-3.48-5.2-5.09-9.24-5.07c-6.83,0.04-13.66-0.03-20.49,0.04c-1.38,0.02-1.78-0.34-1.71-1.71
	C82.89,124.52,82.81,122.2,82.81,119.94z M86.69,109.14c0.79-0.69,1.19-0.01,1.67,0.26c4.15,2.34,8.46,4.28,13.2,5.07
	c6.5,1.08,12.46-0.85,18.32-3.35c0.42-0.18,0.83-0.37,1.23-0.58c1.1-0.56,2.28-1.7,3.26-1.54c0.96,0.16,1.64,1.71,2.56,2.51
	c0.81,0.7,0.71,1.13-0.01,1.8c-3.1,2.88-6.88,4.38-10.88,5.37c-3.42,0.85-6.91,1.18-10.57,1.23c-4.9-0.14-9.85-0.76-14.54-2.7
	c-1.31-0.54-2.6-1.2-3.8-1.95C83.51,112.99,83.49,111.95,86.69,109.14z M100.81,135.33c-0.1-0.87,0.35-0.95,1.02-0.93
	c1.3,0.03,2.6-0.05,3.9,0.03c2.24,0.14,3.93,1.93,3.93,4.07c0,2.13-1.68,3.95-3.94,4.06c-1.87,0.09-3.75,0.02-5.74,0.02
	C100.61,140.1,101.09,137.74,100.81,135.33z M172.93,154.13c0.03-3.09,1.48-4.49,4.58-4.51c1.5-0.01,2.99-0.01,4.49,0
	c5.5,0.05,9.5,3.86,9.66,9.36c0.11,3.83,0.11,7.68,0,11.51c-0.15,5.36-3.88,9.1-9.25,9.4c-1.75,0.1-3.51,0.09-5.27,0.02
	c-2.72-0.11-4.17-1.59-4.21-4.31c-0.05-3.58-0.01-7.15-0.01-10.73C172.92,161.28,172.89,157.71,172.93,154.13z M170.46,90.43
	c-0.07-8.26-0.06-16.53,0-24.79c0.03-3.79,2.21-5.92,5.98-5.97c3.84-0.05,7.68-0.05,11.52,0c3.98,0.04,6.13,2.22,6.16,6.19
	c0.03,4.1,0.01,8.2,0.01,12.3c0,4.03,0.02,8.07-0.01,12.1c-0.03,3.94-2.25,6.18-6.17,6.21c-3.77,0.03-7.55,0.03-11.32,0
	C172.78,96.43,170.49,94.26,170.46,90.43z M35.2,90.71c-2.67,3.05-2.71,3.41-0.91,7.05c2.79,5.64,2.32,9.47-1.63,13.28
	c-0.93,0.9-1.43,1.13-2.67,1.11c-0.93-0.05-1.8-0.61-2.33-1.71c-0.55-1.13-0.43-2.3,0.45-3.07c2.67-2.32,2.16-4.7,0.71-7.47
	c-2.8-5.37-2.01-9.52,2.19-13.33c1.45-1.31,3.14-1.39,4.34-0.19C36.58,87.6,36.53,89.18,35.2,90.71z M51.21,83.23
	c0.84,1.41,1.28,2.98,1.23,4.07c0.01,3.84-1.62,6.3-3.93,8.34c-1.22,1.08-2.69,1-3.88-0.15c-1.18-1.15-1.23-2.52-0.28-3.88
	c0.3-0.42,0.68-0.79,1.03-1.17c1.26-1.35,1.43-2.84,0.64-4.49c-0.67-1.4-1.41-2.79-1.94-4.24c-1.51-4.11,0.22-9.15,3.89-11.51
	c1.32-0.85,2.64-0.72,3.72,0.39c1.09,1.12,1.37,2.75,0.23,3.69C48.51,77.12,49.31,80.05,51.21,83.23z M88.31,34.59
	c0,2.14,0.02,4.28-0.01,6.43c-0.02,2.1-1.14,3.43-2.87,3.46c-1.72,0.04-2.99-1.32-3-3.35c-0.03-4.28-0.03-8.57,0-12.85
	c0.02-1.94,1.21-3.22,2.88-3.25c1.75-0.04,2.95,1.27,2.98,3.34C88.33,30.44,88.31,32.51,88.31,34.59z M102.46,35.16
	c-0.06-4.35-0.06-8.7,0-13.04c0.02-1.93,1.29-3.22,2.94-3.23c1.66-0.01,2.88,1.26,2.93,3.2c0.06,2.2,0.01,4.41,0.01,6.62
	c0,2.14,0.05,4.28-0.01,6.42c-0.05,2.01-1.18,3.19-2.91,3.19C103.72,38.32,102.49,37.12,102.46,35.16z M122.55,41.02
	c-0.03-4.22-0.03-8.44,0-12.65c0.02-2.07,1.24-3.38,2.97-3.34c1.67,0.04,2.86,1.3,2.91,3.26c0.06,2.2,0.01,4.41,0.01,6.62
	c0,2.01,0.03,4.02-0.01,6.04c-0.04,2.18-1.26,3.58-3.03,3.54C123.7,44.45,122.57,43.13,122.55,41.02z M85.64,73.33
	c-0.96-1.32-0.8-2.7,0.36-3.89c2.98-3.05,11.31-3.06,14.34-0.04c0.64,0.64,0.97,1.37,0.94,2.26c-0.05,2.23-2.34,3.6-4.33,2.45
	c-2.55-1.48-4.98-1.53-7.51,0.01C88.01,74.99,86.61,74.66,85.64,73.33z M109.49,73.28c-0.98-1.29-0.65-2.91,0.75-4.12
	c2.92-2.52,9.88-2.72,13.24-0.36c0.37,0.26,0.7,0.57,1.02,0.89c0.52,0.54,0.68,1.23,0.74,1.88c-0.04,2.25-2.41,3.7-4.33,2.59
	c-2.61-1.52-5.06-1.55-7.66,0.01C111.83,75.03,110.48,74.57,109.49,73.28z"/>
</svg>
