<svg id="Capa_1" enable-background="new 0 0 512 512" height="512" viewBox="0 0 512 512" width="512" xmlns="http://www.w3.org/2000/svg"><g><path fill="#683830" d="m400.964 273.021c31.614-2.01 60.557-16.211 81.509-40.002 43.205-49.072 38.434-124.176-10.631-167.418-21.292-18.761-48.635-29.271-76.968-29.591-.46-.01-.91-.01-1.36-.01-27.563 0-54.316 9.58-75.478 27.061-3.19 2.64-3.64 7.37-1.01 10.56 2.64 3.2 7.371 3.65 10.561 1.01 39.414-32.552 95.911-31.621 134.345 2.22 42.855 37.772 47.015 103.385 9.281 146.257-18.302 20.781-43.585 33.192-71.198 34.942-13.671.86-27.103-.93-39.704-5.19-7.061-2.38-13.862-5.54-20.292-9.43-5.281-3.19-10.311-6.88-15.032-11.04-9.851-8.67-17.702-18.831-23.463-29.871-3.5-6.68-6.231-13.681-8.171-20.871-7.211-26.661-3.67-55.933 11.651-80.984 2.16-3.54 1.04-8.15-2.49-10.31s-8.151-1.05-10.311 2.48c-15.762 25.781-20.632 55.453-15.472 83.354-9.391-2.32-19.002-3.48-28.603-3.48-32.904 0-65.667 13.581-89.08 40.162-23.153 26.301-32.534 60.063-28.703 92.394l-46.822 14.449c-3.16-6.684-9.949-11.33-17.819-11.33h-46.012c-10.859-.001-19.692 8.846-19.692 19.72v112.912c0 10.859 8.833 19.693 19.692 19.693h46.012c8.618 0 15.943-5.558 18.619-13.266l60.302 10.467c.43.07.86.11 1.29.11 3.58 0 6.751-2.57 7.381-6.22.71-4.08-2.03-7.97-6.111-8.671l-61.763-10.721v-97.575l47.641-14.709 11.651-3.6c.91-.28 1.81-.56 2.7-.83 40.224-12.241 59.237-14.341 85.919-14.341h24.313c3.01.54 5.691 1.45 8.061 2.64 7.321 3.64 11.581 9.93 12.811 16.391.36 1.87.46 3.76.31 5.6-.72 8.88-7.611 18.381-24.773 18.381h-18.932c-15.032-.97-24.613 9.65-26.313 20.711-1.64 10.67 4.15 23.931 20.762 27.861.16.04.32.07.48.1l8.611 1.44 49.846 8.34 1.85.31c.22.04.44.07.66.08 3.56.28 7.001.69 10.331 1.09 10.291 1.22 20.012 2.38 31.694-.35l107.682-25.151c.03-.01.07-.02.11-.03 12.581-3.15 18.972 2.66 20.752 9.14 1.89 6.89-1.09 15.811-12.101 19.101l-168.919 50.502c-18.782 5.61-34.334 3.13-40.144 1.8-.13-.03-.26-.06-.39-.08l-58.717-10.18c-4.08-.7-7.961 2.03-8.671 6.11s2.03 7.96 6.111 8.67l58.527 10.15c3.72.84 10.551 2.02 19.362 2.02 8.041 0 17.732-.98 28.223-4.12l168.909-50.502c19.542-5.84 26.063-23.651 22.283-37.442-3.64-13.251-17.332-25.081-38.804-19.741l-107.622 25.141c-5.681 1.33-10.961 1.46-16.392 1.09 8.721-5.75 16.722-12.711 23.813-20.761 20.942-23.771 31.373-54.282 29.363-85.914-.3-4.72-.87-9.38-1.71-13.971 9.261 2.3 18.842 3.48 28.583 3.48 2.542.003 5.102-.077 7.672-.237zm-330.542 167.995c0 2.544-2.16 4.693-4.718 4.693h-46.012c-2.542 0-4.69-2.149-4.69-4.693v-112.913c0-2.603 2.104-4.721 4.69-4.721h46.012c2.557 0 4.718 2.162 4.718 4.721zm255.374-81.261c-10.811 12.281-24.063 21.641-38.804 27.601l-54.196-9.07c-6.541-1.62-9.961-5.69-9.161-10.921.67-4.34 4.231-8.48 10.681-8.02.19.01.37.02.55.02h19.192c25.633 0 38.424-16.161 39.724-32.172 1.04-12.691-4.841-26.641-17.762-34.682-4.46-5.34-11.151-8.74-18.612-8.74h-18.572c-5.221 0-9.481-4.26-9.481-9.49s4.26-9.48 9.481-9.48h35.414c4.14 0 7.501-3.36 7.501-7.5s-3.36-7.5-7.501-7.5h-18.697v-12.69c0-4.143-3.358-7.5-7.501-7.5s-7.501 3.358-7.501 7.5v12.69h-1.715c-13.501 0-24.483 10.98-24.483 24.481 0 4.51 1.23 8.75 3.37 12.38-20.752.91-40.004 4.22-72.778 14.111-2.53-27.401 5.781-55.753 25.363-77.984h-.01c28.393-32.231 72.518-42.582 110.882-29.681 6.511 18.961 17.912 36.462 33.894 50.532 9.971 8.79 21.122 15.721 33.044 20.651 1.76 6.61 2.89 13.431 3.33 20.411 1.761 27.631-7.35 54.282-25.652 75.053z"/><path fill="#683830" d="m402.675 181.121h-35.409c-4.143 0-7.501 3.358-7.501 7.5s3.358 7.5 7.501 7.5h18.666v12.661c0 4.143 3.358 7.5 7.501 7.5s7.501-3.358 7.501-7.5v-12.661h1.741c13.501 0 24.483-10.997 24.483-24.514 0-13.502-10.932-24.485-24.37-24.485h-18.541c-5.227 0-9.481-4.255-9.481-9.485s4.253-9.484 9.481-9.484h35.41c4.143 0 7.501-3.358 7.501-7.5s-3.358-7.5-7.501-7.5h-18.695v-12.661c0-4.143-3.358-7.5-7.501-7.5s-7.501 3.358-7.501 7.5v12.661h-1.713c-13.5 0-24.482 10.984-24.482 24.485 0 13.502 10.983 24.485 24.482 24.485h18.541c5.078 0 9.368 4.344 9.368 9.485 0 5.245-4.253 9.513-9.481 9.513z"/></g></svg>