<svg width="8" height="8" viewBox="0 0 8 8" fill="none" xmlns="http://www.w3.org/2000/svg">
<g clip-path="url(#clip0)">
<path d="M7.24805 1.78815L7.07141 1.25867C7.00415 1.05701 6.8161 0.921509 6.60358 0.921509H5.11902V0.438171C5.11902 0.196594 4.92261 0 4.68109 0H3.32159C3.08014 0 2.88367 0.196594 2.88367 0.438171V0.921509H1.39917C1.18659 0.921509 0.998536 1.05701 0.931275 1.25867L0.75464 1.78815C0.714417 1.90869 0.734803 2.04218 0.809083 2.14526C0.883363 2.24835 1.00354 2.30994 1.13062 2.30994H1.31525L1.72162 7.33502C1.75183 7.70789 2.06824 8 2.44208 8H5.64307C6.01685 8 6.33331 7.70789 6.36346 7.33496L6.76984 2.30994H6.87207C6.99915 2.30994 7.11932 2.24835 7.1936 2.14532C7.26788 2.04224 7.28827 1.90869 7.24805 1.78815ZM3.35242 0.46875H4.65027V0.921509H3.35242V0.46875ZM5.89624 7.29718C5.88562 7.42847 5.77441 7.53125 5.64307 7.53125H2.44208C2.31073 7.53125 2.19952 7.42847 2.1889 7.29718L1.78552 2.30994H6.29956L5.89624 7.29718ZM1.23114 1.84119L1.37598 1.40698C1.37927 1.39697 1.38861 1.39026 1.39917 1.39026H6.60358C6.61414 1.39026 6.62341 1.39697 6.62677 1.40698L6.77161 1.84119H1.23114Z" fill="black" fill-opacity="0.6"/>
<path d="M5.14868 7.28058C5.15283 7.28083 5.15692 7.28089 5.16107 7.28089C5.28491 7.28089 5.38843 7.18384 5.3949 7.05872L5.61499 2.83374C5.62171 2.70447 5.52234 2.59418 5.39313 2.58747C5.26355 2.58057 5.15363 2.68006 5.14685 2.80933L4.92682 7.03431C4.92011 7.16358 5.01941 7.27387 5.14868 7.28058Z" fill="black" fill-opacity="0.6"/>
<path d="M2.61823 7.05927C2.62506 7.18421 2.72845 7.28089 2.85205 7.28089C2.85632 7.28089 2.86072 7.28077 2.86505 7.28052C2.99426 7.2735 3.09332 7.16303 3.0863 7.03376L2.85577 2.80878C2.84875 2.67951 2.73828 2.58045 2.60901 2.58753C2.4798 2.59455 2.38074 2.70502 2.38776 2.8343L2.61823 7.05927Z" fill="black" fill-opacity="0.6"/>
<path d="M4.00397 7.28088C4.13342 7.28088 4.23834 7.17596 4.23834 7.04651V2.82153C4.23834 2.69208 4.13342 2.58716 4.00397 2.58716C3.87451 2.58716 3.76959 2.69208 3.76959 2.82153V7.04651C3.76959 7.17596 3.87451 7.28088 4.00397 7.28088Z" fill="black" fill-opacity="0.6"/>
</g>
<defs>
<clipPath id="clip0">
<rect width="8" height="8" fill="white"/>
</clipPath>
</defs>
</svg>
