<svg width="80" height="79" viewBox="0 0 80 79" fill="none" xmlns="http://www.w3.org/2000/svg">
<path d="M40 0C17.8902 0 0 17.6681 0 39.5C0 61.3335 17.8917 79 40 79C62.1098 79 80 61.3319 80 39.5C80 17.6665 62.1083 0 40 0ZM40 72.8281C21.3448 72.8281 6.25 57.9207 6.25 39.5C6.25 21.078 21.3461 6.17188 40 6.17188C58.6552 6.17188 73.75 21.0793 73.75 39.5C73.75 57.922 58.6539 72.8281 40 72.8281Z" fill="#FD0F0F"/>
<path d="M40 19.8853C38.2741 19.8853 36.875 21.2669 36.875 22.9713V42.8436C36.875 44.548 38.2741 45.9295 40 45.9295C41.7259 45.9295 43.125 44.548 43.125 42.8436V22.9713C43.125 21.2669 41.7259 19.8853 40 19.8853Z" fill="#FD0F0F"/>
<path d="M40 58.0403C42.33 58.0403 44.2188 56.1751 44.2188 53.8743C44.2188 51.5735 42.33 49.7083 40 49.7083C37.67 49.7083 35.7812 51.5735 35.7812 53.8743C35.7812 56.1751 37.67 58.0403 40 58.0403Z" fill="#FD0F0F"/>
</svg>
